#!OML:ASF F:\VICON\USERDATA\INSTALL\rory3\rory3.ASF
:FULLY-SPECIFIED
:DEGREES
28
root -0.30915900830696513 17.563945339438455 5.850312249327791 4.33314169586973 1.6628047431920678 0.18089538865168198
lfemur 3.6587441910927314 0.23015948971242067 -25.834621843743157
ltibia 38.72527652800787
lfoot -10.105425525280255 -1.1408740948120597
ltoes -25.16124027341501
rfemur -48.219812803905754 -3.2103551060795588 22.90803717494365
rtibia 100.19640195384828
rfoot 2.9962284101407004 -2.5402804444979585
rtoes 3.174711293534879
lowerback 16.621117278323602 -0.4769635455203458 -3.2191788390332965
upperback -1.007231529383945 -1.1377504805641676 1.2509723436920637
thorax -10.338117271281629 -0.3045750521835032 4.457037216197723
lowerneck -21.343600926539683 -2.872565249398309 -1.61031135508623
upperneck 13.143688785092047 -4.030723780379036 3.5076782055152558
head 7.620659926978147 -1.6343808724349516 0.99081432265043
lclavicle -8.745270183983239e-16 2.4024318232048306e-15
lhumerus -32.29957830770036 -19.012844395931946 97.29909837696398
lradius 120.68890423855434
lwrist 37.663026298231166
lhand -25.20468681260607 1.8024251217801912
lfingers 7.12502
lthumb 1.3138223502499664 31.74528196066893
rclavicle -8.745270183983239e-16 2.4024318232048306e-15
rhumerus -60.32334022241493 8.516786072092653 -100.79082756242829
rradius 108.37529900566503
rwrist -12.494223292373448
rhand -15.126555828833512 39.76791735046178
rfingers 7.12502
rthumb 11.042232593980046 9.716298353711867
29
root -0.2680168162641787 17.806152722451824 8.586159195454782 4.614290564928248 0.5043390771889399 -0.33090223893481685
lfemur 7.954758042595488 0.5660489433151406 -25.308560660523003
ltibia 34.95270662397391
lfoot -2.1520464371546653 -4.004190725588601
ltoes -27.54612360510361
rfemur -48.532011121724196 -1.218227638606594 23.785821404798085
rtibia 91.03206346865456
rfoot 2.4971640431240827 -1.575795933308691
rtoes 0.3901228753203685
lowerback 15.979674633155037 -0.645929475231894 -2.7953710706604156
upperback -1.19947281132995 -1.252053524674933 1.6988902339699021
thorax -10.098006858513722 -0.36896624572684 4.695490594060764
lowerneck -21.309644356806167 -2.6482971258804247 -1.7231268839256182
upperneck 13.60050266970612 -3.6652020761201785 3.313267613828941
head 7.731992788645467 -1.4815462626426827 0.9668747445534143
lclavicle -6.383808475389802e-16 2.5723568385565435e-15
lhumerus -31.93406459530052 -18.398731357729872 96.47222548399381
lradius 122.58410002561222
lwrist 38.122600786977614
lhand -24.764833156728734 2.1850463999549277
lfingers 7.12502
lthumb 1.7385540863765336 32.11669130104958
rclavicle -6.383808475389802e-16 2.5723568385565435e-15
rhumerus -61.830155641986714 8.28947701007051 -100.05623402764769
rradius 109.41186628075465
rwrist -12.297779537402638
rhand -15.097545894043323 39.94841470309911
rfingers 7.12502
rthumb 11.070068895796755 9.896355715243626
30
root -0.23069519880683917 18.00292653626029 8.401853206267935 4.769803634721285 -0.7671461851697391 -0.8336461953679346
lfemur 10.834006554298773 0.15345499475266405 -25.354616863722928
ltibia 30.238233276199104
lfoot 5.42137786502599 -6.698560792658444
ltoes -26.790097039847197
rfemur -48.8839563723477 0.6651901287281432 24.017216441692693
rtibia 79.45659024939899
rfoot 2.0298261727860467 -0.3159883389870286
rtoes -4.153328246248233
lowerback 15.473442437647805 -0.8363953908987614 -2.5038557251284583
upperback -1.4739179423988849 -1.4101635310992982 2.019930631087748
thorax -10.055045676644662 -0.4492363172399009 4.688626572868855
lowerneck -21.009488233207552 -2.5108972875623885 -1.800273067215778
upperneck 13.84771645277855 -3.429194455840209 3.093060418590418
head 7.754696860285007 -1.3948384305156352 0.9221768735184064
lclavicle -1.5500369842921275e-15 1.9116288321040814e-15
lhumerus -32.65522424270185 -18.523612391503825 95.81482702560182
lradius 123.43867492398982
lwrist 37.74205006583423
lhand -24.184654533057937 1.958043220001037
lfingers 7.12502
lthumb 2.298854441643792 31.87587224274721
rclavicle -1.5500369842921275e-15 1.9116288321040814e-15
rhumerus -63.73094859423471 7.418249600407596 -99.4209189948423
rradius 110.06784638404739
rwrist -11.753234280638724
rhand -15.391521780711983 40.10436069313837
rfingers 7.12502
rthumb 10.786099698575592 9.96249998390528
31
root -0.2016112836581302 18.18384969314416 9.153270756393352 5.116159476126661 -1.5417462059120943 -1.0321690634905358
lfemur 13.094657101668504 -0.9282356105516321 -25.592221819884184
ltibia 27.821781835527375
lfoot 12.907253416538047 -9.188130094053186
ltoes -23.03322387561318
rfemur -47.87476545767986 1.9047758328453426 24.272316990105516
rtibia 67.27278965453847
rfoot 2.1242677131994387 1.178597206649493
rtoes -7.022589631893371
lowerback 14.936315221868592 -1.0496903843654433 -2.117310225288522
upperback -1.8111631312115462 -1.60959433229542 2.251700442015429
thorax -10.005400285682695 -0.5507027722014045 4.635735336076562
lowerneck -20.713494217874935 -2.3841616869140845 -1.8935603503384817
upperneck 14.17380417284615 -3.1887262694780025 2.8760922452786355
head 7.798690394817537 -1.3127598205934987 0.8772848188551164
lclavicle -1.8042593220899883e-15 1.7272732755269383e-15
lhumerus -33.50685190331282 -18.702743541652843 95.23776376600715
lradius 123.21921001893296
lwrist 36.96902367290141
lhand -23.67526835053614 1.5882261476886295
lfingers 7.12502
lthumb 2.7908309629487436 31.509717402035903
rclavicle -1.8042593220899883e-15 1.7272732755269383e-15
rhumerus -65.18645333258564 6.2422585835687805 -98.41779145008296
rradius 111.02277069829232
rwrist -11.159520813240166
rhand -15.64533761902688 40.29597013529795
rfingers 7.12502
rthumb 10.540888205970294 10.111455701862148
